<svg width="16" height="21" fill="none" xmlns="http://www.w3.org/2000/svg"><path d="M5.972 20.499h0a.79.79 0 01-.305-.624v-1.292H1.25a.792.792 0 01-.792-.791V3.208a.792.792 0 01.792-.791h4.417V1.126A.795.795 0 016.65.357s0 0 0 0l8.332 2.083h0a.791.791 0 01.6.768s0 0 0 0v14.584h0a.79.79 0 01-.6.767h0L6.65 20.643h0a.79.79 0 01-.678-.144zM7.561 2.217l-.31-.078v16.722l.31-.078 6.25-1.562.19-.048V3.827l-.19-.048-6.25-1.562zM2.04 16.75V17h3.626V4H2.042v12.75z" fill="#fff" stroke="#C93E33" stroke-width=".5"/></svg>