<svg width="21" height="21" fill="none" xmlns="http://www.w3.org/2000/svg"><path d="M19.372 3.534c.159.385.253.8.253 1.237a3.4 3.4 0 01-3.396 3.396c-.394 0-.772-.077-1.123-.204l-.15-.054-.112.112L3.167 19.688l-1.855-1.854 7.542-7.543.177-.176-.177-.177L7 8.084l-.177-.177-.177.177-.563.563-1.292-1.292-.426-.427v.01l-.324-.323L2.75 5.323l3.511-3.51s0 0 0 0a2.875 2.875 0 013.879-.17L8.115 3.667l-.177.177.177.177 1.292 1.292-.563.562-.177.177.177.177 1.854 1.854.177.177.177-.177 1.927-1.927.112-.112-.054-.15a3.304 3.304 0 01-.204-1.123 3.4 3.4 0 013.396-3.396c.437 0 .852.094 1.238.253l-2.56 2.56-.177.177.177.177 1.552 1.552.176.176.177-.176 2.56-2.56zM4.365 10.376l-.49.49L.541 7.53l.49-.49h3.334v3.335zm8.346 3.428l1.856-1.856 5.892 5.893-1.856 1.856-5.892-5.893z" fill="#A7A7A7" stroke="#fff" stroke-width=".5"/></svg>