<svg width="19" height="21" fill="none" xmlns="http://www.w3.org/2000/svg"><path d="M17.925 9.54v8.627a1.717 1.717 0 01-1.717 1.716H2.792c-.456 0-.892-.18-1.214-.502l-.14.14.14-.14a1.716 1.716 0 01-.503-1.214V9.542c0-.1.02-.2.06-.291L.95 9.173l.184.078a.758.758 0 01.167-.247h0l.002-.001L8.97 1.337s0 0 0 0a.758.758 0 011.07 0s0 0 0 0l7.665 7.665s0 0 0 0a.757.757 0 01.22.539zm.2 8.627V9.542H.875v8.625a1.917 1.917 0 001.917 1.916h13.416a1.917 1.917 0 001.917-1.916zm-10.742 0v.2h4.234v-5.192H7.383v4.992zM2.65 9.793l-.058.059v8.515h3.275v-4.992a1.717 1.717 0 011.716-1.717h3.834a1.717 1.717 0 011.716 1.717v4.992h3.275V9.852l-.058-.059-6.71-6.708-.14-.141-.141.14-6.709 6.71z" fill="#A7A7A7" stroke="#fff" stroke-width=".4"/></svg>