<svg width="20" height="18" viewBox="0 0 20 18" fill="none" xmlns="http://www.w3.org/2000/svg">
<path fill-rule="evenodd" clip-rule="evenodd" d="M0.416748 1.49996C0.416748 1.03972 0.789844 0.666626 1.25008 0.666626H2.70842C3.0908 0.666626 3.42412 0.926874 3.51687 1.29785L3.98406 3.16663H18.3334C18.59 3.16663 18.8323 3.28485 18.9903 3.48712C19.1482 3.68938 19.2041 3.95312 19.1419 4.20207L17.0585 12.5354C16.9658 12.9064 16.6325 13.1666 16.2501 13.1666H5.41675C5.03436 13.1666 4.70104 12.9064 4.6083 12.5354L2.05777 2.33329H1.25008C0.789844 2.33329 0.416748 1.9602 0.416748 1.49996ZM4.40073 4.83329L6.0674 11.5H15.5994L17.2661 4.83329H4.40073Z" fill="#E30614"/>
<path fill-rule="evenodd" clip-rule="evenodd" d="M5.41675 13.1666C6.56734 13.1666 7.50008 14.0994 7.50008 15.25C7.50008 16.4006 6.56734 17.3333 5.41675 17.3333C4.26616 17.3333 3.33342 16.4006 3.33342 15.25C3.33342 14.0994 4.26616 13.1666 5.41675 13.1666ZM5.41675 14.8333C5.18663 14.8333 5.00008 15.0198 5.00008 15.25C5.00008 15.4801 5.18663 15.6666 5.41675 15.6666C5.64687 15.6666 5.83342 15.4801 5.83342 15.25C5.83342 15.0198 5.64687 14.8333 5.41675 14.8333Z" fill="#E30614"/>
<path fill-rule="evenodd" clip-rule="evenodd" d="M16.2501 13.1666C17.4007 13.1666 18.3334 14.0994 18.3334 15.25C18.3334 16.4006 17.4007 17.3333 16.2501 17.3333C15.0995 17.3333 14.1667 16.4006 14.1667 15.25C14.1667 14.0994 15.0995 13.1666 16.2501 13.1666ZM15.8334 15.25C15.8334 15.0198 16.02 14.8333 16.2501 14.8333C16.4802 14.8333 16.6667 15.0198 16.6667 15.25C16.6667 15.4801 16.4802 15.6666 16.2501 15.6666C16.02 15.6666 15.8334 15.4801 15.8334 15.25Z" fill="#E30614"/>
</svg>
