<svg width="16" height="21" viewBox="0 0 16 21" fill="none" xmlns="http://www.w3.org/2000/svg">
<path d="M5.97197 20.499L5.97136 20.4985C5.77929 20.3491 5.66683 20.1189 5.66683 19.875V18.8333V18.5833H5.41683H1.25016C1.0402 18.5833 0.838836 18.4999 0.69037 18.3514C0.541904 18.203 0.458496 18.0016 0.458496 17.7917V3.20832C0.458496 2.99836 0.541904 2.79699 0.69037 2.64853C0.838836 2.50006 1.0402 2.41665 1.25016 2.41665H5.41683H5.66683V2.16665V1.12557C5.66739 1.00551 5.69514 0.88713 5.748 0.779325C5.80093 0.67139 5.87766 0.576867 5.9724 0.502873C6.06714 0.428878 6.17744 0.377339 6.29498 0.352136C6.41236 0.326969 6.53391 0.328717 6.65051 0.357246C6.65067 0.357287 6.65084 0.357327 6.651 0.357368L14.9833 2.44044L14.9834 2.44047C15.1548 2.48321 15.3069 2.582 15.4156 2.72115C15.5243 2.86028 15.5834 3.03175 15.5835 3.20832C15.5835 3.20834 15.5835 3.20837 15.5835 3.20839L15.5835 17.7917L15.5835 17.7918C15.5836 17.9684 15.5246 18.1399 15.4158 18.279C15.3071 18.4181 15.155 18.5169 14.9836 18.5595L14.9833 18.5595L6.64994 20.6429L6.64978 20.6429C6.5333 20.6721 6.41168 20.6743 6.29422 20.6494C6.17675 20.6244 6.06653 20.573 5.97197 20.499ZM7.5608 2.21683L7.25016 2.13917V2.45936V18.5406V18.8608L7.5608 18.7831L13.8108 17.2206L14.0002 17.1733V16.9781V4.02186V3.82667L13.8108 3.77933L7.5608 2.21683ZM2.04183 16.75V17H2.29183H5.41683H5.66683V16.75V4.24999V3.99999H5.41683H2.29183H2.04183V4.24999V16.75Z" fill="white" stroke="#C93E33" stroke-width="0.5"/>
</svg>
