<svg width="21" height="21" viewBox="0 0 21 21" fill="none" xmlns="http://www.w3.org/2000/svg">
<path d="M19.3723 3.53356C19.5308 3.91927 19.625 4.33466 19.625 4.77101C19.625 6.64336 18.1015 8.16685 16.2292 8.16685C15.8349 8.16685 15.4574 8.08993 15.1057 7.96296L14.9564 7.90904L14.8441 8.02124L3.16674 19.6884L1.31189 17.8335L8.85386 10.2915L9.03064 10.1148L8.85386 9.93799L6.99969 8.08382L6.82292 7.90704L6.64614 8.08382L6.08333 8.64663L4.79136 7.35465L4.36458 6.92788V6.93829L4.04136 6.61507L2.74939 5.3231L6.26 1.81248C6.26003 1.81245 6.26006 1.81242 6.26009 1.81239C6.79915 1.27406 7.52983 0.97168 8.29167 0.97168C8.96971 0.97168 9.62308 1.2112 10.1386 1.64341L8.11489 3.66715L7.93811 3.84393L8.11489 4.02071L9.40686 5.31268L8.84406 5.87549L8.66728 6.05226L8.84406 6.22904L10.6982 8.08321L10.875 8.25998L11.0518 8.08321L12.9789 6.15612L13.0912 6.04382L13.0372 5.89443C12.9103 5.54282 12.8333 5.16532 12.8333 4.77101C12.8333 2.89867 14.3568 1.37518 16.2292 1.37518C16.6655 1.37518 17.0809 1.46936 17.4666 1.62792L14.9066 4.18799L14.7298 4.36476L14.9066 4.54154L16.4586 6.09362L16.6354 6.2704L16.8122 6.09362L19.3723 3.53356ZM4.36458 10.3758L3.875 10.8654L0.541054 7.53143L1.03064 7.04185H3.86458H4.36458V7.53143V10.3758ZM12.7108 13.8043L14.5667 11.9485L20.4589 17.8408L18.6031 19.6966L12.7108 13.8043Z" fill="#A7A7A7" stroke="white" stroke-width="0.5"/>
</svg>
