<svg width="19" height="21" viewBox="0 0 19 21" fill="none" xmlns="http://www.w3.org/2000/svg">
<path d="M17.925 9.54062V9.54178V18.1668C17.925 18.6221 17.7441 19.0587 17.4222 19.3806C17.1003 19.7026 16.6636 19.8834 16.2083 19.8834H2.79167C2.33638 19.8834 1.89974 19.7026 1.5778 19.3806L1.4373 19.5211L1.5778 19.3806C1.25586 19.0587 1.075 18.6221 1.075 18.1668V9.54221C1.07547 9.44201 1.09579 9.3429 1.13479 9.2506L0.951391 9.17311L1.13479 9.2506C1.17384 9.15818 1.23085 9.07442 1.3025 9.00419L1.30251 9.0042L1.30392 9.00278L8.97017 1.33653C8.97024 1.33646 8.97031 1.33639 8.97038 1.33632C9.11245 1.19521 9.30455 1.11602 9.50479 1.11602C9.70503 1.11602 9.89714 1.19521 10.0392 1.33632C10.0393 1.33639 10.0393 1.33646 10.0394 1.33653L17.7051 9.0022C17.7052 9.00234 17.7054 9.00249 17.7055 9.00263C17.7756 9.0734 17.8311 9.15728 17.8687 9.24949C17.9065 9.34188 17.9256 9.44082 17.925 9.54062ZM18.125 18.1668V9.54178H0.875V18.1668C0.875 18.6751 1.07693 19.1626 1.43638 19.5221C1.79582 19.8815 2.28334 20.0834 2.79167 20.0834H16.2083C16.7167 20.0834 17.2042 19.8815 17.5636 19.5221C17.9231 19.1626 18.125 18.6751 18.125 18.1668ZM7.38333 18.1668V18.3668H7.58333H11.4167H11.6167V18.1668V13.3751V13.1751H11.4167H7.58333H7.38333V13.3751V18.1668ZM2.65025 9.79327L2.59167 9.85185V9.93469V18.1668V18.3668H2.79167H5.66667H5.86667V18.1668V13.3751C5.86667 12.9198 6.04753 12.4832 6.36947 12.1612C6.6914 11.8393 7.12805 11.6584 7.58333 11.6584H11.4167C11.872 11.6584 12.3086 11.8393 12.6305 12.1612C12.9525 12.4832 13.1333 12.9198 13.1333 13.3751V18.1668V18.3668H13.3333H16.2083H16.4083V18.1668V9.93469V9.85185L16.3498 9.79327L9.64142 3.08494L9.5 2.94352L9.35858 3.08494L2.65025 9.79327Z" fill="#A7A7A7" stroke="white" stroke-width="0.4"/>
</svg>
