<svg width="20" height="20" fill="none" xmlns="http://www.w3.org/2000/svg"><path fill-rule="evenodd" clip-rule="evenodd" d="M1.667 3.333c0-.92.746-1.666 1.666-1.666H7.5c.92 0 1.667.746 1.667 1.666V7.5c0 .92-.747 1.667-1.667 1.667H3.333c-.92 0-1.666-.747-1.666-1.667V3.333zm5.833 0H3.333V7.5H7.5V3.333zm3.333 0c0-.92.746-1.666 1.667-1.666h4.167c.92 0 1.666.746 1.666 1.666V7.5c0 .92-.746 1.667-1.666 1.667H12.5c-.92 0-1.667-.747-1.667-1.667V3.333zm5.834 0H12.5V7.5h4.167V3.333zm-15 9.167c0-.92.746-1.667 1.666-1.667H7.5c.92 0 1.667.746 1.667 1.667v4.167c0 .92-.747 1.666-1.667 1.666H3.333c-.92 0-1.666-.746-1.666-1.666V12.5zm5.833 0H3.333v4.167H7.5V12.5zm3.333 0c0-.92.746-1.667 1.667-1.667h4.167c.92 0 1.666.746 1.666 1.667v4.167c0 .92-.746 1.666-1.666 1.666H12.5c-.92 0-1.667-.746-1.667-1.666V12.5zm5.834 0H12.5v4.167h4.167V12.5z" fill="#E30614"/></svg>