<svg width="20" height="18" fill="none" xmlns="http://www.w3.org/2000/svg"><path fill-rule="evenodd" clip-rule="evenodd" d="M.417 1.5c0-.46.373-.833.833-.833h1.458c.383 0 .716.26.809.63l.467 1.87h14.35a.834.834 0 01.808 1.035l-2.084 8.333a.833.833 0 01-.808.632H5.417a.833.833 0 01-.809-.632L2.058 2.333H1.25A.833.833 0 01.417 1.5zM4.4 4.833L6.067 11.5H15.6l1.667-6.667H4.401z" fill="#E30614"/><path fill-rule="evenodd" clip-rule="evenodd" d="M5.417 13.167a2.083 2.083 0 110 4.166 2.083 2.083 0 010-4.166zm0 1.666a.417.417 0 100 .834.417.417 0 000-.834zm10.833-1.666a2.083 2.083 0 110 4.166 2.083 2.083 0 010-4.166zm-.417 2.083a.417.417 0 11.834 0 .417.417 0 01-.834 0z" fill="#E30614"/></svg>