<svg width="20" height="18" fill="none" xmlns="http://www.w3.org/2000/svg"><path fill-rule="evenodd" clip-rule="evenodd" d="M9.997.25c.318 0 .608.179.749.463l2.386 4.808 5.321.776a.833.833 0 01.463 1.42l-3.87 3.79.919 5.266a.833.833 0 01-1.213.88l-4.753-2.534-4.751 2.533a.833.833 0 01-1.213-.88l.926-5.265-3.877-3.79a.833.833 0 01.463-1.42l5.35-.776L9.251.717A.833.833 0 019.997.25zm.007 2.718L8.201 6.649a.833.833 0 01-.63.458l-4.116.597 2.985 2.919c.197.192.286.47.239.74l-.706 4.014 3.634-1.938a.833.833 0 01.784 0l3.638 1.94-.7-4.017a.833.833 0 01.237-.739l2.982-2.92-4.089-.596a.833.833 0 01-.626-.454l-1.829-3.685z" fill="#E30614"/></svg>