<svg width="11" height="15" fill="none" xmlns="http://www.w3.org/2000/svg"><path d="M5.5.625a5.312 5.312 0 015.313 5.313c0 1.865-.862 3.752-2.301 5.594a18.254 18.254 0 01-1.774 1.95l-.262.246-.238.215-.213.184-.13.107a.625.625 0 01-.785.004l-.136-.112-.212-.184-.238-.214-.262-.245-.138-.134a18.255 18.255 0 01-1.636-1.817C1.048 9.69.188 7.803.188 5.937A5.312 5.312 0 015.5.625zm0 1.25a4.062 4.062 0 00-4.063 4.063c0 1.535.752 3.182 2.036 4.824a17.04 17.04 0 001.524 1.692l.251.241c.083.078.166.156.252.23l.252-.23.251-.24a17.04 17.04 0 001.524-1.693c1.284-1.642 2.035-3.29 2.035-4.825A4.062 4.062 0 005.5 1.875zm0 1.563a2.5 2.5 0 110 5 2.5 2.5 0 010-5zm0 1.25a1.25 1.25 0 100 2.5 1.25 1.25 0 000-2.5z" fill="#E30614"/></svg>